<svg xmlns="http://www.w3.org/2000/svg" width="30.582" height="28.543" viewBox="0 0 30.582 28.543"><defs><style>.a{fill:#939393;}</style></defs><path class="a" d="M40.623,26.426a4.077,4.077,0,0,0,2.883-6.961,4.077,4.077,0,1,0-5.766,5.766A3.929,3.929,0,0,0,40.623,26.426Z" transform="translate(-34.506 -18.271)"/><path class="a" d="M166.241,101.8a6.114,6.114,0,1,0-1.792-4.325A5.894,5.894,0,0,0,166.241,101.8Z" transform="translate(-155.274 -87.285)"/><path class="a" d="M369.53,26.426a4.077,4.077,0,0,0,2.883-6.961,4.077,4.077,0,1,0-5.766,5.766A3.929,3.929,0,0,0,369.53,26.426Z" transform="translate(-345.064 -18.271)"/><path class="a" d="M386.33,164.456a3.048,3.048,0,0,0-.693.335,10.458,10.458,0,0,1-1.553.677,5.594,5.594,0,0,1-1.9.342,6.4,6.4,0,0,1-2.119-.366,8,8,0,0,1,.079,1.051,7.011,7.011,0,0,1-1.291,4.078,5.492,5.492,0,0,1,4.221,2.039h2.134a3.652,3.652,0,0,0,2.2-.645,2.182,2.182,0,0,0,.892-1.887Q388.306,164.456,386.33,164.456Z" transform="translate(-357.724 -156.3)"/><path class="a" d="M95.239,298.1a13.489,13.489,0,0,0-.422-1.728,8.209,8.209,0,0,0-.685-1.553,5.616,5.616,0,0,0-.988-1.29,4.164,4.164,0,0,0-1.362-.852,4.784,4.784,0,0,0-1.776-.318,1.876,1.876,0,0,0-.685.343q-.526.342-1.163.764a7.4,7.4,0,0,1-7.709,0q-.637-.422-1.163-.764a1.877,1.877,0,0,0-.685-.343,4.784,4.784,0,0,0-1.776.318,4.157,4.157,0,0,0-1.362.852,5.6,5.6,0,0,0-.988,1.29,8.191,8.191,0,0,0-.685,1.553,13.525,13.525,0,0,0-.422,1.728,16.194,16.194,0,0,0-.223,1.736q-.056.8-.056,1.649a3.969,3.969,0,0,0,1.163,3.018,4.3,4.3,0,0,0,3.09,1.107H91.264a4.3,4.3,0,0,0,3.09-1.107,3.969,3.969,0,0,0,1.163-3.018q0-.844-.055-1.649A16.465,16.465,0,0,0,95.239,298.1Z" transform="translate(-69.012 -277.068)"/><path class="a" d="M9.445,170.571a7.012,7.012,0,0,1-1.29-4.078,7.955,7.955,0,0,1,.08-1.051,6.4,6.4,0,0,1-2.119.366,5.594,5.594,0,0,1-1.9-.342,10.465,10.465,0,0,1-1.553-.677,3.042,3.042,0,0,0-.693-.335Q0,164.455,0,170.078a2.182,2.182,0,0,0,.892,1.887,3.652,3.652,0,0,0,2.2.645H5.224A5.492,5.492,0,0,1,9.445,170.571Z" transform="translate(0 -156.299)"/></svg>